<svg width="16" height="16" viewBox="0 0 16 16" fill="none" xmlns="http://www.w3.org/2000/svg">
<path fill-rule="evenodd" clip-rule="evenodd" d="M5.905 0.28C7.47826 -0.147177 9.14449 -0.0835105 10.6806 0.462474C12.2167 1.00846 13.5493 2.0107 14.5 3.335V1.75C14.5 1.55109 14.579 1.36032 14.7197 1.21967C14.8603 1.07902 15.0511 1 15.25 1C15.4489 1 15.6397 1.07902 15.7803 1.21967C15.921 1.36032 16 1.55109 16 1.75V6H11.75C11.5511 6 11.3603 5.92098 11.2197 5.78033C11.079 5.63968 11 5.44891 11 5.25C11 5.05109 11.079 4.86032 11.2197 4.71967C11.3603 4.57902 11.5511 4.5 11.75 4.5H13.477C12.6937 3.27449 11.5219 2.34711 10.1493 1.86623C8.77658 1.38535 7.28228 1.37875 5.90542 1.8475C4.52855 2.31624 3.34868 3.23323 2.55455 4.45178C1.76043 5.67033 1.39795 7.12001 1.5251 8.56891C1.65225 10.0178 2.26167 11.3822 3.25589 12.4438C4.25011 13.5054 5.57166 14.2029 7.00912 14.4247C8.44658 14.6465 9.9169 14.3797 11.1848 13.6671C12.4528 12.9545 13.4451 11.8372 14.003 10.494C14.0392 10.4009 14.0937 10.3159 14.1632 10.2441C14.2327 10.1724 14.3158 10.1152 14.4077 10.076C14.4996 10.0368 14.5984 10.0163 14.6984 10.0158C14.7983 10.0154 14.8973 10.0349 14.9896 10.0732C15.0819 10.1115 15.1655 10.1678 15.2357 10.2389C15.3059 10.3101 15.3612 10.3945 15.3983 10.4872C15.4355 10.58 15.4537 10.6793 15.4519 10.7792C15.4501 10.8791 15.4284 10.9776 15.388 11.069C14.8668 12.3235 14.0347 13.4247 12.9702 14.2686C11.9057 15.1126 10.6438 15.6716 9.30342 15.8929C7.96307 16.1142 6.58845 15.9905 5.30912 15.5336C4.0298 15.0766 2.88791 14.3014 1.99111 13.281C1.0943 12.2605 0.472114 11.0286 0.183198 9.70116C-0.105718 8.37374 -0.0518466 6.99462 0.339734 5.69379C0.731314 4.39296 1.4477 3.21327 2.42138 2.26593C3.39505 1.31858 4.59392 0.635787 5.905 0.28Z" fill="#EDB83D"/>
</svg>
